<?xml version="1.0" encoding="utf-8"?>
<!-- Generator: Adobe Illustrator 19.2.1, SVG Export Plug-In . SVG Version: 6.00 Build 0)  -->
<svg version="1.1" id="Layer_1" xmlns="http://www.w3.org/2000/svg" xmlns:xlink="http://www.w3.org/1999/xlink" x="0px" y="0px"
	 viewBox="0 0 960 960" style="enable-background:new 0 0 960 960;" xml:space="preserve">
<style type="text/css">
	.st0{fill:#FFFFFF;}
</style>
<g>
	<path class="st0" d="M480,7C218.8,7,7,218.8,7,480s211.8,473,473,473s473-211.8,473-473S741.2,7,480,7z M480,917.3
		C238.9,917.3,42.7,721.1,42.7,480S238.9,42.7,480,42.7S917.3,238.9,917.3,480S721.1,917.3,480,917.3z"/>
	<g>
		<path class="st0" d="M296,459.5c-11.1-15.8-21.9-32-32.7-48.1l-0.7,0.3c0.3,14.5,0.7,33,0.7,52.9V602h-31V358.1h31L349.9,482
			l86.5-123.9H467v243.8h-32V464.5c0-19.9,0.3-38.4,0.7-52.9l-0.7-0.3c-10.8,16.2-21.5,32.3-32.7,48.1l-53.2,76.1L296,459.5z"/>
		<path class="st0" d="M596.3,358.1H627l100.7,243.8h-34.3l-27.3-68H556.3l-27.6,68H496L596.3,358.1z M567.4,505.9h87.5L635,455.4
			c-7.7-19.5-15.8-40.4-23.2-60.3h-0.7c-7.4,19.9-15.5,40.4-23.9,61.3L567.4,505.9z"/>
	</g>
</g>
</svg>
